<svg xmlns="http://www.w3.org/2000/svg" width="38.32" height="38.32" viewBox="0 0 38.32 38.32">
  <path id="Icon_ionic-ios-checkmark-circle" data-name="Icon ionic-ios-checkmark-circle" d="M22.535,3.375A19.16,19.16,0,1,0,41.7,22.535,19.157,19.157,0,0,0,22.535,3.375Zm9.81,13.863L20.03,29.61H20.02a1.664,1.664,0,0,1-1.069.507,1.613,1.613,0,0,1-1.078-.525l-5.159-5.159a.367.367,0,0,1,0-.525l1.64-1.64a.356.356,0,0,1,.516,0l4.09,4.09L30.2,15.037a.364.364,0,0,1,.258-.111h0a.334.334,0,0,1,.258.111L32.327,16.7A.363.363,0,0,1,32.346,17.238Z" transform="translate(-3.375 -3.375)" fill="#fff"/>
</svg>
